REM DIRINDEX 1\2\6,1\2\7,1\2\8,1\3\9,1\3\10,1\3\11,1\4\12,1\4\13,1\4\14,1\5\15,1\5\16,1\5\17,1\5\18
REM DIRNAME cjc019,folder01,folder02,folder03,folder04,folder05,folder06,folder07,folder08,folder09,folder10,folder11,folder12,folder13,folder14,folder15,folder16,folder17
TITLE ""
FILE "2Q_t_0054-0071.mp3" MP3
  TRACK 01 AUDIO
    TITLE "13:cjc019_2163"
    INDEX 01 00:00:00
  TRACK 02 AUDIO
    TITLE "0:"
    INDEX 01 00:01:09
  TRACK 03 AUDIO
    TITLE "14:cjc019_2164"
    INDEX 01 00:01:64
  TRACK 04 AUDIO
    TITLE "0:"
    INDEX 01 00:03:37
  TRACK 05 AUDIO
    TITLE "13:cjc019_2165"
    INDEX 01 00:04:11
  TRACK 06 AUDIO
    TITLE "0:"
    INDEX 01 00:05:24
  TRACK 07 AUDIO
    TITLE "14:cjc019_2166"
    INDEX 01 00:05:71
  TRACK 08 AUDIO
    TITLE "0:"
    INDEX 01 00:07:52
  TRACK 09 AUDIO
    TITLE "13:cjc019_2167"
    INDEX 01 00:08:26
  TRACK 10 AUDIO
    TITLE "0:"
    INDEX 01 00:09:47
  TRACK 11 AUDIO
    TITLE "14:cjc019_2168"
    INDEX 01 00:10:23
  TRACK 12 AUDIO
    TITLE "0:"
    INDEX 01 00:13:55
  TRACK 13 AUDIO
    TITLE "13:cjc019_2169"
    INDEX 01 00:14:31
  TRACK 14 AUDIO
    TITLE "0:"
    INDEX 01 00:15:52
  TRACK 15 AUDIO
    TITLE "14:cjc019_2170"
    INDEX 01 00:16:30
  TRACK 16 AUDIO
    TITLE "0:"
    INDEX 01 00:18:19
  TRACK 17 AUDIO
    TITLE "13:cjc019_2171"
    INDEX 01 00:18:70
  TRACK 18 AUDIO
    TITLE "0:"
    INDEX 01 00:20:08
  TRACK 19 AUDIO
    TITLE "14:cjc019_2172"
    INDEX 01 00:20:53
  TRACK 20 AUDIO
    TITLE "0:"
    INDEX 01 00:22:40
  TRACK 21 AUDIO
    TITLE "13:cjc019_2173"
    INDEX 01 00:23:14
  TRACK 22 AUDIO
    TITLE "0:"
    INDEX 01 00:24:29
  TRACK 23 AUDIO
    TITLE "14:cjc019_2174"
    INDEX 01 00:25:01
  TRACK 24 AUDIO
    TITLE "0:"
    INDEX 01 00:29:42
  TRACK 25 AUDIO
    TITLE "13:cjc019_2175"
    INDEX 01 00:30:20
  TRACK 26 AUDIO
    TITLE "0:"
    INDEX 01 00:31:43
  TRACK 27 AUDIO
    TITLE "14:cjc019_2176"
    INDEX 01 00:32:23
  TRACK 28 AUDIO
    TITLE "0:"
    INDEX 01 00:35:35
  TRACK 29 AUDIO
    TITLE "13:cjc019_2177"
    INDEX 01 00:36:11
  TRACK 30 AUDIO
    TITLE "0:"
    INDEX 01 00:37:24
  TRACK 31 AUDIO
    TITLE "14:cjc019_2178"
    INDEX 01 00:38:04
  TRACK 32 AUDIO
    TITLE "0:"
    INDEX 01 00:41:02
  TRACK 33 AUDIO
    TITLE "13:cjc019_2179"
    INDEX 01 00:41:57
  TRACK 34 AUDIO
    TITLE "0:"
    INDEX 01 00:43:07
  TRACK 35 AUDIO
    TITLE "14:cjc019_2180"
    INDEX 01 00:43:58
  TRACK 36 AUDIO
    TITLE "0:"
    INDEX 01 00:45:63
  TRACK 37 AUDIO
    TITLE "13:cjc019_2181"
    INDEX 01 00:46:37
  TRACK 38 AUDIO
    TITLE "0:"
    INDEX 01 00:47:62
  TRACK 39 AUDIO
    TITLE "14:cjc019_2182"
    INDEX 01 00:48:44
  TRACK 40 AUDIO
    TITLE "0:"
    INDEX 01 00:52:24
  TRACK 41 AUDIO
    TITLE "13:cjc019_2183"
    INDEX 01 00:53:09
  TRACK 42 AUDIO
    TITLE "0:"
    INDEX 01 00:54:40
  TRACK 43 AUDIO
    TITLE "14:cjc019_2184"
    INDEX 01 00:55:22
  TRACK 44 AUDIO
    TITLE "0:"
    INDEX 01 00:58:50
  TRACK 45 AUDIO
    TITLE "13:cjc019_2185"
    INDEX 01 00:59:24
  TRACK 46 AUDIO
    TITLE "0:"
    INDEX 01 01:00:45
  TRACK 47 AUDIO
    TITLE "14:cjc019_2186"
    INDEX 01 01:01:25
  TRACK 48 AUDIO
    TITLE "0:"
    INDEX 01 01:06:28
  TRACK 49 AUDIO
    TITLE "13:cjc019_2187"
    INDEX 01 01:07:12
  TRACK 50 AUDIO
    TITLE "0:"
    INDEX 01 01:08:23
  TRACK 51 AUDIO
    TITLE "14:cjc019_2188"
    INDEX 01 01:09:05
  TRACK 52 AUDIO
    TITLE "0:"
    INDEX 01 01:12:32
  TRACK 53 AUDIO
    TITLE "13:cjc019_2189"
    INDEX 01 01:13:08
  TRACK 54 AUDIO
    TITLE "0:"
    INDEX 01 01:14:27
  TRACK 55 AUDIO
    TITLE "14:cjc019_2190"
    INDEX 01 01:15:07
  TRACK 56 AUDIO
    TITLE "0:"
    INDEX 01 01:18:33
  TRACK 57 AUDIO
    TITLE "13:cjc019_2191"
    INDEX 01 01:19:07
  TRACK 58 AUDIO
    TITLE "0:"
    INDEX 01 01:20:34
  TRACK 59 AUDIO
    TITLE "14:cjc019_2192"
    INDEX 01 01:21:18
  TRACK 60 AUDIO
    TITLE "0:"
    INDEX 01 01:24:63
  TRACK 61 AUDIO
    TITLE "13:cjc019_2193"
    INDEX 01 01:25:37
  TRACK 62 AUDIO
    TITLE "0:"
    INDEX 01 01:26:36
  TRACK 63 AUDIO
    TITLE "14:cjc019_2194"
    INDEX 01 01:27:18
  TRACK 64 AUDIO
    TITLE "0:"
    INDEX 01 01:28:55
  TRACK 65 AUDIO
    TITLE "13:cjc019_2195"
    INDEX 01 01:29:29
  TRACK 66 AUDIO
    TITLE "0:"
    INDEX 01 01:30:32
  TRACK 67 AUDIO
    TITLE "14:cjc019_2196"
    INDEX 01 01:31:14
  TRACK 68 AUDIO
    TITLE "0:"
    INDEX 01 01:34:57
  TRACK 69 AUDIO
    TITLE "13:cjc019_2197"
    INDEX 01 01:35:29
  TRACK 70 AUDIO
    TITLE "0:"
    INDEX 01 01:36:41
  TRACK 71 AUDIO
    TITLE "14:cjc019_2198"
    INDEX 01 01:37:22
  TRACK 72 AUDIO
    TITLE "0:"
    INDEX 01 01:42:45
